<svg width="657.9px" height="120.8px" xmlns="http://www.w3.org/2000/svg" viewBox="-78.9375 14.600000000000001 657.875 120.8" style="background: rgb(3, 3, 3)" preserveAspectRatio="xMidYMid"><defs><linearGradient id="editing-gradow-gradient" x1="0" x2="1" y1="0.5" y2="0.5" gradientUnits="objectBoundingBox"><stop offset="0" stop-color="#14843c"></stop><stop offset="1" stop-color="#1087b0"></stop></linearGradient><filter id="editing-gradow-filter" x="-100%" y="-100%" width="300%" height="300%"><feFlood flood-color="#b4b524" result="flood"></feFlood><feComposite operator="in" in2="SourceAlpha" in="flood" result="shadow"></feComposite><feOffset dx="-4" dy="-4" in="SourceGraphic" result="offset-1"></feOffset><feOffset dx="4" dy="4" in="shadow" result="offset-2"></feOffset><feMerge><feMergeNode in="offset-2"></feMergeNode><feMergeNode in="offset-1"></feMergeNode></feMerge></filter></defs><g filter="url(#editing-gradow-filter)"><g transform="matrix(1.1,0,0,1.5,-11.9,174.9)"><path d="M -17.4 -51.4 L -31.4 -51.4 L -23.2 -93.6 L -9.2 -93.6 L -17.4 -51.4 Z M 38.3 -50.1 L 38.3 -50.1 L 38.3 -50.1 Q 30.6 -50.1 30.6 -56.1 L 30.6 -56.1 L 30.6 -56.1 Q 30.6 -58.7 31.7 -63.8 L 31.7 -63.8 L 31.7 -63.8 Q 32.8 -68.9 33.2 -71 L 33.2 -71 L 33.2 -71 Q 34.1 -75.6 34.1 -77.1 L 34.1 -77.1 L 34.1 -77.1 Q 34.1 -80.4 31.7 -80.4 L 31.7 -80.4 L 31.7 -80.4 Q 30.1 -80.4 28.5 -78.2 L 28.5 -78.2 L 28.5 -78.2 Q 27 -76 26.3 -71.5 L 26.3 -71.5 L 22.3 -51.4 L 9.9 -50.1 L 13.3 -67.5 L 13.3 -67.5 Q 13.9 -70.4 14.4 -73.7 L 14.4 -73.7 L 14.4 -73.7 Q 14.9 -76.9 14.9 -77.4 L 14.9 -77.4 L 14.9 -77.4 Q 14.9 -80.4 12.7 -80.4 L 12.7 -80.4 L 12.7 -80.4 Q 11.3 -80.4 9.7 -78.2 L 9.7 -78.2 L 9.7 -78.2 Q 8.1 -76 7.2 -71.5 L 7.2 -71.5 L 3.3 -51.4 L -9.3 -50.1 L -2.6 -84 L 7.8 -85.3 L 6.7 -78.8 L 6.7 -78.8 Q 8.4 -82.3 11.5 -83.8 L 11.5 -83.8 L 11.5 -83.8 Q 14.5 -85.3 19.3 -85.3 L 19.3 -85.3 L 19.3 -85.3 Q 22.1 -85.3 23.9 -84 L 23.9 -84 L 23.9 -84 Q 25.7 -82.6 26.2 -80.4 L 26.2 -80.4 L 26.2 -80.4 Q 27.3 -82.7 30.1 -84 L 30.1 -84 L 30.1 -84 Q 32.9 -85.3 36.3 -85.3 L 36.3 -85.3 L 36.3 -85.3 Q 39.7 -85.3 41.4 -84.6 L 41.4 -84.6 L 41.4 -84.6 Q 43.1 -83.8 44.2 -82.6 L 44.2 -82.6 L 44.2 -82.6 Q 45.9 -80.4 45.9 -76.3 L 45.9 -76.3 L 45.9 -76.3 Q 45.9 -72.2 44.2 -63.9 L 44.2 -63.9 L 44.2 -63.9 Q 43.3 -59.8 43.3 -58.3 L 43.3 -58.3 L 43.3 -58.3 Q 43.3 -56.8 44.1 -55.9 L 44.1 -55.9 L 44.1 -55.9 Q 45 -55 46.3 -54.8 L 46.3 -54.8 L 46.3 -54.8 Q 45.6 -52.7 43.4 -51.4 L 43.4 -51.4 L 43.4 -51.4 Q 41.2 -50.1 38.3 -50.1 Z M 54 -53.3 L 54 -53.3 L 54 -53.3 Q 52.5 -55 51.8 -57.6 L 51.8 -57.6 L 51.8 -57.6 Q 51.1 -60.2 51.1 -64.5 L 51.1 -64.5 L 51.1 -64.5 Q 51.1 -68.8 52.6 -72.7 L 52.6 -72.7 L 52.6 -72.7 Q 54.1 -76.6 56.8 -79.4 L 56.8 -79.4 L 56.8 -79.4 Q 62.3 -85.3 71.4 -85.3 L 71.4 -85.3 L 71.4 -85.3 Q 74.6 -85.3 77 -84.2 L 77 -84.2 L 87.9 -85.3 L 83.2 -60.3 L 83.2 -60.3 Q 83 -59.6 83 -58.2 L 83 -58.2 L 83 -58.2 Q 83 -56.8 83.9 -55.9 L 83.9 -55.9 L 83.9 -55.9 Q 84.7 -55 86 -54.8 L 86 -54.8 L 86 -54.8 Q 85.4 -52.7 83 -51.4 L 83 -51.4 L 83 -51.4 Q 80.7 -50.1 78.1 -50.1 L 78.1 -50.1 L 78.1 -50.1 Q 75.5 -50.1 73.7 -51.1 L 73.7 -51.1 L 73.7 -51.1 Q 71.9 -52.1 71.4 -53.8 L 71.4 -53.8 L 71.4 -53.8 Q 70.4 -52.2 68.2 -51.1 L 68.2 -51.1 L 68.2 -51.1 Q 66 -50.1 63.1 -50.1 L 63.1 -50.1 L 63.1 -50.1 Q 60.2 -50.1 57.9 -50.9 L 57.9 -50.9 L 57.9 -50.9 Q 55.5 -51.6 54 -53.3 Z M 67.5 -79.3 L 67.5 -79.3 L 67.5 -79.3 Q 66.8 -78.1 66.1 -76.2 L 66.1 -76.2 L 66.1 -76.2 Q 65.5 -74.2 64.4 -69 L 64.4 -69 L 64.4 -69 Q 63.4 -63.8 63.4 -60.1 L 63.4 -60.1 L 63.4 -60.1 Q 63.4 -56.4 63.9 -55.3 L 63.9 -55.3 L 63.9 -55.3 Q 64.5 -54.2 65.5 -54.2 L 65.5 -54.2 L 65.5 -54.2 Q 67.6 -54.2 69.1 -56.2 L 69.1 -56.2 L 69.1 -56.2 Q 70.6 -58.1 71.2 -61.6 L 71.2 -61.6 L 74.6 -80.3 L 74.6 -80.3 Q 73.2 -81.5 71.6 -81.5 L 71.6 -81.5 L 71.6 -81.5 Q 70.1 -81.5 69.2 -81 L 69.2 -81 L 69.2 -81 Q 68.2 -80.4 67.5 -79.3 Z M 95.7 -78.1 L 95.7 -78.1 L 95.7 -78.1 Q 97.9 -81.2 101.2 -83.3 L 101.2 -83.3 L 101.2 -83.3 Q 104.4 -85.3 108.5 -85.3 L 108.5 -85.3 L 108.5 -85.3 Q 112.5 -85.3 114.4 -84 L 114.4 -84 L 127 -85.3 L 122.6 -60.7 L 122.6 -60.7 Q 120.4 -48.2 115.6 -43.3 L 115.6 -43.3 L 115.6 -43.3 Q 111.1 -38.6 102.3 -38.6 L 102.3 -38.6 L 102.3 -38.6 Q 95.6 -38.6 91.7 -40.7 L 91.7 -40.7 L 91.7 -40.7 Q 87.9 -42.8 87.9 -46.3 L 87.9 -46.3 L 87.9 -46.3 Q 87.9 -49 89.9 -50.5 L 89.9 -50.5 L 89.9 -50.5 Q 91.8 -52 94.9 -52 L 94.9 -52 L 94.9 -52 Q 97.6 -52 99.6 -50.7 L 99.6 -50.7 L 99.6 -50.7 Q 100.9 -50.1 101.4 -49.2 L 101.4 -49.2 L 101.4 -49.2 Q 100 -47.9 100 -45.8 L 100 -45.8 L 100 -45.8 Q 100 -43.1 102.5 -43.1 L 102.5 -43.1 L 102.5 -43.1 Q 106.8 -43.1 109.2 -53.2 L 109.2 -53.2 L 109.2 -53.2 Q 110 -55.9 110.5 -58.7 L 110.5 -58.7 L 110.5 -58.7 Q 107.6 -55.2 101.1 -55.2 L 101.1 -55.2 L 101.1 -55.2 Q 96.6 -55.2 94 -57.3 L 94 -57.3 L 94 -57.3 Q 91.3 -59.5 91.3 -64.6 L 91.3 -64.6 L 91.3 -64.6 Q 91.3 -67.8 92.4 -71.4 L 92.4 -71.4 L 92.4 -71.4 Q 93.5 -75.1 95.7 -78.1 Z M 104 -64.4 L 104 -64.4 L 104 -64.4 Q 104 -60.1 106.2 -60.1 L 106.2 -60.1 L 106.2 -60.1 Q 107.8 -60.1 109.2 -61.8 L 109.2 -61.8 L 109.2 -61.8 Q 110.4 -63.1 110.8 -65.1 L 110.8 -65.1 L 114.1 -81.5 L 114.1 -81.5 Q 113.8 -81.6 113.5 -81.7 L 113.5 -81.7 L 113.5 -81.7 Q 112.8 -82 112 -82 L 112 -82 L 112 -82 Q 108.1 -82 105.8 -75.6 L 105.8 -75.6 L 105.8 -75.6 Q 104 -70.6 104 -64.4 Z M 155.4 -62.2 L 155.4 -62.2 L 155.4 -62.2 Q 157 -61.1 157 -58.7 L 157 -58.7 L 157 -58.7 Q 157 -56.3 155.8 -54.8 L 155.8 -54.8 L 155.8 -54.8 Q 154.6 -53.2 152.6 -52.2 L 152.6 -52.2 L 152.6 -52.2 Q 148.5 -50.1 144.1 -50.1 L 144.1 -50.1 L 144.1 -50.1 Q 139.6 -50.1 137.1 -51.1 L 137.1 -51.1 L 137.1 -51.1 Q 134.5 -52 132.7 -53.8 L 132.7 -53.8 L 132.7 -53.8 Q 129.3 -57.2 129.3 -63.4 L 129.3 -63.4 L 129.3 -63.4 Q 129.3 -73.1 134.6 -79 L 134.6 -79 L 134.6 -79 Q 140.2 -85.3 150 -85.3 L 150 -85.3 L 150 -85.3 Q 156.1 -85.3 159.1 -82.7 L 159.1 -82.7 L 159.1 -82.7 Q 161.3 -80.8 161.3 -77.7 L 161.3 -77.7 L 161.3 -77.7 Q 161.3 -66.4 141.9 -66.4 L 141.9 -66.4 L 141.9 -66.4 Q 141.6 -64.8 141.6 -63.4 L 141.6 -63.4 L 141.6 -63.4 Q 141.6 -60.4 142.9 -59.3 L 142.9 -59.3 L 142.9 -59.3 Q 144.3 -58.2 146.7 -58.2 L 146.7 -58.2 L 146.7 -58.2 Q 149.1 -58.2 151.7 -59.3 L 151.7 -59.3 L 151.7 -59.3 Q 154.3 -60.4 155.4 -62.2 Z M 142.3 -69.2 L 142.3 -69.2 L 142.3 -69.2 Q 146.9 -69.2 149.5 -72 L 149.5 -72 L 149.5 -72 Q 152.1 -74.7 152.1 -79 L 152.1 -79 L 152.1 -79 Q 152.1 -80.4 151.6 -81.2 L 151.6 -81.2 L 151.6 -81.2 Q 151 -82 150 -82 L 150 -82 L 150 -82 Q 148.9 -82 147.9 -81.6 L 147.9 -81.6 L 147.9 -81.6 Q 147 -81.2 146 -79.8 L 146 -79.8 L 146 -79.8 Q 143.7 -76.6 142.3 -69.2 Z M 182.7 -73.8 L 182.7 -73.8 L 182.7 -73.8 Q 183.6 -76.2 183.6 -78.3 L 183.6 -78.3 L 183.6 -78.3 Q 183.6 -82 180.5 -82 L 180.5 -82 L 180.5 -82 Q 178.9 -82 177.6 -80.6 L 177.6 -80.6 L 177.6 -80.6 Q 176.3 -79.2 176.3 -77.4 L 176.3 -77.4 L 176.3 -77.4 Q 176.3 -76.1 177.3 -75.1 L 177.3 -75.1 L 177.3 -75.1 Q 178.8 -73.7 182.5 -71.4 L 182.5 -71.4 L 182.5 -71.4 Q 186.3 -69 187.7 -67.2 L 187.7 -67.2 L 187.7 -67.2 Q 189.2 -65.3 189.2 -62.7 L 189.2 -62.7 L 189.2 -62.7 Q 189.2 -60.1 187.9 -57.7 L 187.9 -57.7 L 187.9 -57.7 Q 186.7 -55.4 184.4 -53.7 L 184.4 -53.7 L 184.4 -53.7 Q 179.6 -50.1 172 -50.1 L 172 -50.1 L 172 -50.1 Q 167.8 -50.1 164.6 -52.3 L 164.6 -52.3 L 164.6 -52.3 Q 161.4 -54.4 161.4 -56.9 L 161.4 -56.9 L 161.4 -56.9 Q 161.4 -59.4 163.2 -60.9 L 163.2 -60.9 L 163.2 -60.9 Q 165.1 -62.3 167.7 -62.3 L 167.7 -62.3 L 167.7 -62.3 Q 170.4 -62.3 172.1 -61.3 L 172.1 -61.3 L 172.1 -61.3 Q 171.3 -59.2 171.3 -57.8 L 171.3 -57.8 L 171.3 -57.8 Q 171.3 -53.6 174.8 -53.6 L 174.8 -53.6 L 174.8 -53.6 Q 176.4 -53.6 177.4 -54.5 L 177.4 -54.5 L 177.4 -54.5 Q 178.4 -55.5 178.4 -57.1 L 178.4 -57.1 L 178.4 -57.1 Q 178.4 -60.4 172.9 -63.9 L 172.9 -63.9 L 172.9 -63.9 Q 168.4 -66.8 167.4 -68 L 167.4 -68 L 167.4 -68 Q 165.7 -70 165.7 -72.6 L 165.7 -72.6 L 165.7 -72.6 Q 165.7 -75.1 166.9 -77.6 L 166.9 -77.6 L 166.9 -77.6 Q 168.1 -80 170.4 -81.7 L 170.4 -81.7 L 170.4 -81.7 Q 175 -85.3 183.2 -85.3 L 183.2 -85.3 L 183.2 -85.3 Q 187.3 -85.3 189.8 -83.6 L 189.8 -83.6 L 189.8 -83.6 Q 192.3 -82 192.3 -79.2 L 192.3 -79.2 L 192.3 -79.2 Q 192.3 -76.3 190.6 -74.7 L 190.6 -74.7 L 190.6 -74.7 Q 188.9 -73.1 185.8 -73.1 L 185.8 -73.1 L 185.8 -73.1 Q 183.7 -73.1 182.7 -73.8 Z M 233.7 -72 L 246.7 -73.1 L 246.7 -73.1 Q 242 -63 242 -51.3 L 242 -51.3 L 242 -51.3 Q 240.3 -50.1 237.8 -50.1 L 237.8 -50.1 L 237.8 -50.1 Q 235.3 -50.1 233.7 -51.3 L 233.7 -51.3 L 233.7 -51.3 Q 232.1 -52.5 231.7 -53.7 L 231.7 -53.7 L 231.7 -53.7 Q 230.1 -52 227.6 -51.1 L 227.6 -51.1 L 227.6 -51.1 Q 225 -50.1 222.2 -50.1 L 222.2 -50.1 L 222.2 -50.1 Q 219.5 -50.1 217.1 -51 L 217.1 -51 L 217.1 -51 Q 214.7 -51.9 212.8 -53.9 L 212.8 -53.9 L 212.8 -53.9 Q 208.7 -58.2 208.7 -66.5 L 208.7 -66.5 L 208.7 -66.5 Q 208.7 -79.3 215.6 -87 L 215.6 -87 L 215.6 -87 Q 222.6 -94.9 235.1 -94.9 L 235.1 -94.9 L 235.1 -94.9 Q 243.7 -94.9 246.8 -90.4 L 246.8 -90.4 L 246.8 -90.4 Q 247.7 -89 247.7 -87.3 L 247.7 -87.3 L 247.7 -87.3 Q 247.7 -85.6 247 -84.2 L 247 -84.2 L 247 -84.2 Q 246.3 -82.7 245.1 -81.6 L 245.1 -81.6 L 245.1 -81.6 Q 242.4 -79 239 -79 L 239 -79 L 239 -79 Q 237.6 -79 236.4 -79.5 L 236.4 -79.5 L 236.4 -79.5 Q 236.6 -81.4 236.6 -83.6 L 236.6 -83.6 L 236.6 -83.6 Q 236.6 -85.9 236.4 -86.9 L 236.4 -86.9 L 236.4 -86.9 Q 236.3 -87.9 235.9 -88.8 L 235.9 -88.8 L 235.9 -88.8 Q 235.1 -90.5 233.2 -90.5 L 233.2 -90.5 L 233.2 -90.5 Q 231.4 -90.5 229.4 -88.5 L 229.4 -88.5 L 229.4 -88.5 Q 227.4 -86.6 225.8 -83.4 L 225.8 -83.4 L 225.8 -83.4 Q 222.3 -76.2 222.3 -67.6 L 222.3 -67.6 L 222.3 -67.6 Q 222.3 -63.6 223.8 -60.8 L 223.8 -60.8 L 223.8 -60.8 Q 225.5 -57.7 228.4 -57.7 L 228.4 -57.7 L 228.4 -57.7 Q 229.4 -57.7 230.4 -58.2 L 230.4 -58.2 L 230.4 -58.2 Q 231.3 -58.7 231.7 -59.1 L 231.7 -59.1 L 233.7 -72 Z M 252.6 -53.3 L 252.6 -53.3 L 252.6 -53.3 Q 251.1 -55 250.4 -57.6 L 250.4 -57.6 L 250.4 -57.6 Q 249.7 -60.2 249.7 -64.5 L 249.7 -64.5 L 249.7 -64.5 Q 249.7 -68.8 251.2 -72.7 L 251.2 -72.7 L 251.2 -72.7 Q 252.7 -76.6 255.4 -79.4 L 255.4 -79.4 L 255.4 -79.4 Q 260.9 -85.3 270 -85.3 L 270 -85.3 L 270 -85.3 Q 273.2 -85.3 275.6 -84.2 L 275.6 -84.2 L 286.5 -85.3 L 281.8 -60.3 L 281.8 -60.3 Q 281.6 -59.6 281.6 -58.2 L 281.6 -58.2 L 281.6 -58.2 Q 281.6 -56.8 282.5 -55.9 L 282.5 -55.9 L 282.5 -55.9 Q 283.3 -55 284.6 -54.8 L 284.6 -54.8 L 284.6 -54.8 Q 284 -52.7 281.6 -51.4 L 281.6 -51.4 L 281.6 -51.4 Q 279.3 -50.1 276.7 -50.1 L 276.7 -50.1 L 276.7 -50.1 Q 274 -50.1 272.3 -51.1 L 272.3 -51.1 L 272.3 -51.1 Q 270.5 -52.1 270 -53.8 L 270 -53.8 L 270 -53.8 Q 269 -52.2 266.8 -51.1 L 266.8 -51.1 L 266.8 -51.1 Q 264.6 -50.1 261.7 -50.1 L 261.7 -50.1 L 261.7 -50.1 Q 258.8 -50.1 256.4 -50.9 L 256.4 -50.9 L 256.4 -50.9 Q 254.1 -51.6 252.6 -53.3 Z M 266.1 -79.3 L 266.1 -79.3 L 266.1 -79.3 Q 265.3 -78.1 264.7 -76.2 L 264.7 -76.2 L 264.7 -76.2 Q 264.1 -74.2 263 -69 L 263 -69 L 263 -69 Q 262 -63.8 262 -60.1 L 262 -60.1 L 262 -60.1 Q 262 -56.4 262.5 -55.3 L 262.5 -55.3 L 262.5 -55.3 Q 263.1 -54.2 264.1 -54.2 L 264.1 -54.2 L 264.1 -54.2 Q 266.2 -54.2 267.7 -56.2 L 267.7 -56.2 L 267.7 -56.2 Q 269.2 -58.1 269.8 -61.6 L 269.8 -61.6 L 273.2 -80.3 L 273.2 -80.3 Q 271.8 -81.5 270.2 -81.5 L 270.2 -81.5 L 270.2 -81.5 Q 268.7 -81.5 267.7 -81 L 267.7 -81 L 267.7 -81 Q 266.8 -80.4 266.1 -79.3 Z M 305.3 -54.9 L 305.3 -54.9 L 305.3 -54.9 Q 303.3 -50.1 297 -50.1 L 297 -50.1 L 297 -50.1 Q 293.8 -50.1 291.7 -52.3 L 291.7 -52.3 L 291.7 -52.3 Q 290 -54.2 290 -56.3 L 290 -56.3 L 290 -56.3 Q 290 -61.1 292.3 -71.6 L 292.3 -71.6 L 297 -96.2 L 310 -97.5 L 303.7 -65.1 L 303.7 -65.1 Q 302.7 -60.3 302.7 -58.7 L 302.7 -58.7 L 302.7 -58.7 Q 302.7 -55 305.3 -54.9 Z M 326 -54.9 L 326 -54.9 L 326 -54.9 Q 324 -50.1 317.7 -50.1 L 317.7 -50.1 L 317.7 -50.1 Q 314.5 -50.1 312.4 -52.3 L 312.4 -52.3 L 312.4 -52.3 Q 310.8 -54.2 310.8 -56.3 L 310.8 -56.3 L 310.8 -56.3 Q 310.8 -61.1 313 -71.6 L 313 -71.6 L 317.7 -96.2 L 330.7 -97.5 L 324.5 -65.1 L 324.5 -65.1 Q 323.4 -60.3 323.4 -58.7 L 323.4 -58.7 L 323.4 -58.7 Q 323.4 -55 326 -54.9 Z M 357.4 -62.2 L 357.4 -62.2 L 357.4 -62.2 Q 359 -61.1 359 -58.7 L 359 -58.7 L 359 -58.7 Q 359 -56.3 357.8 -54.8 L 357.8 -54.8 L 357.8 -54.8 Q 356.5 -53.2 354.6 -52.2 L 354.6 -52.2 L 354.6 -52.2 Q 350.5 -50.1 346 -50.1 L 346 -50.1 L 346 -50.1 Q 341.6 -50.1 339 -51.1 L 339 -51.1 L 339 -51.1 Q 336.4 -52 334.7 -53.8 L 334.7 -53.8 L 334.7 -53.8 Q 331.3 -57.2 331.3 -63.4 L 331.3 -63.4 L 331.3 -63.4 Q 331.3 -73.1 336.6 -79 L 336.6 -79 L 336.6 -79 Q 342.2 -85.3 352 -85.3 L 352 -85.3 L 352 -85.3 Q 358.1 -85.3 361.1 -82.7 L 361.1 -82.7 L 361.1 -82.7 Q 363.3 -80.8 363.3 -77.7 L 363.3 -77.7 L 363.3 -77.7 Q 363.3 -66.4 343.9 -66.4 L 343.9 -66.4 L 343.9 -66.4 Q 343.6 -64.8 343.6 -63.4 L 343.6 -63.4 L 343.6 -63.4 Q 343.6 -60.4 344.9 -59.3 L 344.9 -59.3 L 344.9 -59.3 Q 346.2 -58.2 348.7 -58.2 L 348.7 -58.2 L 348.7 -58.2 Q 351.1 -58.2 353.7 -59.3 L 353.7 -59.3 L 353.7 -59.3 Q 356.3 -60.4 357.4 -62.2 Z M 344.3 -69.2 L 344.3 -69.2 L 344.3 -69.2 Q 348.9 -69.2 351.5 -72 L 351.5 -72 L 351.5 -72 Q 354.1 -74.7 354.1 -79 L 354.1 -79 L 354.1 -79 Q 354.1 -80.4 353.6 -81.2 L 353.6 -81.2 L 353.6 -81.2 Q 353 -82 351.9 -82 L 351.9 -82 L 351.9 -82 Q 350.8 -82 349.9 -81.6 L 349.9 -81.6 L 349.9 -81.6 Q 349 -81.2 348 -79.8 L 348 -79.8 L 348 -79.8 Q 345.7 -76.6 344.3 -69.2 Z M 385.5 -69.4 L 385.5 -69.4 L 385.5 -69.4 Q 387.8 -73.5 387.8 -77.6 L 387.8 -77.6 L 387.8 -77.6 Q 387.8 -80.4 385.9 -80.4 L 385.9 -80.4 L 385.9 -80.4 Q 384.3 -80.4 382.7 -77.8 L 382.7 -77.8 L 382.7 -77.8 Q 381.1 -75.1 380.5 -71.7 L 380.5 -71.7 L 377.2 -51.4 L 364 -50.1 L 370.5 -84 L 381.1 -85.3 L 379.9 -78.8 L 379.9 -78.8 Q 383 -85.3 390.1 -85.3 L 390.1 -85.3 L 390.1 -85.3 Q 393.8 -85.3 395.8 -83.4 L 395.8 -83.4 L 395.8 -83.4 Q 397.8 -81.5 397.8 -77.5 L 397.8 -77.5 L 397.8 -77.5 Q 397.8 -73.6 395.2 -71.1 L 395.2 -71.1 L 395.2 -71.1 Q 392.6 -68.6 388.2 -68.6 L 388.2 -68.6 L 388.2 -68.6 Q 386.3 -68.6 385.5 -69.4 Z M 419.2 -58.6 L 419.2 -58.6 L 419.2 -58.6 Q 415.9 -55.2 409.8 -55.2 L 409.8 -55.2 L 409.8 -55.2 Q 402.2 -55.2 400.6 -60.7 L 400.6 -60.7 L 400.6 -60.7 Q 400.1 -62.4 400.1 -64.2 L 400.1 -64.2 L 400.1 -64.2 Q 400.1 -66.1 400.4 -68 L 400.4 -68 L 403.5 -84 L 416.4 -85.3 L 412.9 -66.7 L 412.9 -66.7 Q 412.8 -65.8 412.6 -65 L 412.6 -65 L 412.6 -65 Q 412.4 -64.1 412.4 -63.1 L 412.4 -63.1 L 412.4 -63.1 Q 412.4 -62.2 412.7 -61.6 L 412.7 -61.6 L 412.7 -61.6 Q 413.1 -61 413.5 -60.6 L 413.5 -60.6 L 413.5 -60.6 Q 414.3 -60.1 415.6 -60.1 L 415.6 -60.1 L 415.6 -60.1 Q 417 -60.1 418.2 -61.8 L 418.2 -61.8 L 418.2 -61.8 Q 419.4 -63.4 420 -66.3 L 420 -66.3 L 423.5 -84 L 436.1 -85.3 L 431.3 -60.2 L 431.3 -60.2 Q 428.9 -47.9 424.1 -43 L 424.1 -43 L 424.1 -43 Q 421.6 -40.5 418.3 -39.5 L 418.3 -39.5 L 418.3 -39.5 Q 415.1 -38.5 410.9 -38.5 L 410.9 -38.5 L 410.9 -38.5 Q 404.2 -38.5 400.4 -40.6 L 400.4 -40.6 L 400.4 -40.6 Q 396.5 -42.7 396.5 -46.3 L 396.5 -46.3 L 396.5 -46.3 Q 396.5 -48.9 398.5 -50.4 L 398.5 -50.4 L 398.5 -50.4 Q 400.5 -51.9 403.6 -51.9 L 403.6 -51.9 L 403.6 -51.9 Q 406.3 -51.9 408.3 -50.7 L 408.3 -50.7 L 408.3 -50.7 Q 409.5 -50 410.1 -49.1 L 410.1 -49.1 L 410.1 -49.1 Q 408.6 -47.9 408.6 -45.8 L 408.6 -45.8 L 408.6 -45.8 Q 408.6 -42.9 411.2 -42.9 L 411.2 -42.9 L 411.2 -42.9 Q 415.4 -42.9 417.9 -52.7 L 417.9 -52.7 L 417.9 -52.7 Q 418.6 -55.5 419.2 -58.6 Z" fill="url(#editing-gradow-gradient)"></path></g></g><style>text {
  font-size: 64px;
  font-family: Arial Black;
  dominant-baseline: central;
  text-anchor: middle;
}</style></svg>